<svg id="Capa_1" enable-background="new 0 0 512 512" height="512" viewBox="0 0 512 512" width="512" xmlns="http://www.w3.org/2000/svg"><g><path d="m407 241.994h-75v-60h-68.812c-5.728-5.356-16.067-13.979-29.339-20.589 21.764-31.194 24.093-67.85 24.193-69.634l.944-16.763-16.763.944c-1.617.091-31.897 2.015-60.781 18.587-4.285-47.895-31.863-80.09-33.131-81.547l-11.311-12.986-11.311 12.987c-1.269 1.457-28.847 33.652-33.131 81.547-28.885-16.573-59.163-18.497-60.78-18.588l-16.763-.944.944 16.763c.1 1.787 2.436 38.549 24.289 69.772-12.133 6.294-24.332 15.923-33.944 27.814h-6.304v292.637h64.58c6.192 17.458 22.865 30 42.42 30 11.517 0 22.032-4.354 30-11.495 7.968 7.142 18.483 11.495 30 11.495 19.555 0 36.228-12.542 42.42-30h155.161c6.192 17.458 22.865 30 42.42 30s36.228-12.542 42.42-30h62.579v-135c0-57.897-47.103-105-105-105zm-333.639-87.426c-13.65-13.65-20.588-31.772-24.068-45.329 21.672 5.541 37.939 15.864 46.07 24.978 1.756 1.966-.493-.477 30.097 31.396-2.491-38.053-3.46-44.593-3.46-58.619 0-23.692 7.868-43.692 14.999-56.951 7.136 13.266 15.001 33.262 15.001 56.951 0 14.037-.965 20.499-3.459 58.618 42.124-43.89 27.829-29.203 30.886-32.257 13.628-13.628 31.714-20.566 45.263-24.052-3.487 13.556-10.425 31.638-24.052 45.265-2.114 2.115 8.375-8.053-24.045 22.836l28.576 5.494c11.542 2.219 21.953 8.517 29.358 14.128-10.962 8.357-27.328 16.463-39.168 14.764-3.035-.435-1.37-.176-25.634-2.713l7.316 22.034c.976 2.94 1.801 5.781 2.496 8.451-10.123-2.648-22.726-7.206-34.069-14.963l-8.467-5.79-8.467 5.79c-11.384 7.785-23.971 12.342-34.073 14.983.696-2.677 1.523-5.524 2.501-8.471l7.316-22.034c-24.503 2.562-22.629 2.282-25.633 2.713-11.905 1.707-27.364-6.269-37.806-14.844 6.728-5.524 16.519-11.842 27.993-14.048l28.576-5.494c-32.36-30.83-21.969-20.759-24.047-22.836zm33.639 327.426c-8.271 0-15-6.729-15-15s6.729-15 15-15 15 6.729 15 15-6.729 15-15 15zm60 0c-8.271 0-15-6.729-15-15s6.729-15 15-15 15 6.729 15 15-6.729 15-15 15zm135-30h-92.58c-6.192-17.458-22.865-30-42.42-30-11.517 0-22.032 4.354-30 11.495-7.968-7.142-18.483-11.495-30-11.495-19.555 0-36.228 12.542-42.42 30h-34.58v-225.761c9.004 6.126 20.368 11.929 33.416 14.447-1.95 9.506-2.417 15.93-2.446 16.346l-1.177 17.029 17.039-1.021c1.144-.069 21.816-1.441 45.168-11.1v40.061h30v-40.061c23.352 9.659 44.025 11.031 45.168 11.1l17.037 1.021-1.175-17.027c-.029-.415-.495-6.836-2.442-16.336 24.394-4.635 43.879-20.477 52.625-28.697h38.787zm90-180h15c36.219 0 66.522 25.808 73.491 60h-73.491c-8.271 0-15-6.729-15-15zm15 210c-8.271 0-15-6.729-15-15s6.729-15 15-15 15 6.729 15 15-6.729 15-15 15zm75-90h-30v30h30v30h-32.58c-6.192-17.458-22.865-30-42.42-30s-36.228 12.542-42.42 30h-32.58v-180h30v45c0 24.813 20.187 45 45 45h75z"/></g></svg>